<svg width="244" height="77" viewBox="0 0 244 77" fill="none" xmlns="http://www.w3.org/2000/svg">
<rect x="12" y="21" width="227" height="56" fill="#E74C3C"/>
<rect y="9" width="231" height="58" fill="#2C3E50"/>
<path d="M33.04 47.46V54.532H9.12V21.616H17.44V47.46H33.04ZM36.6942 54.532V21.616H61.1342V28.376H45.0142V34.616H59.0022V41.376H45.0142V47.772H61.1342V54.532H36.6942ZM86.6041 21.616H94.9241V54.532H86.6561L77.2961 40.596C76.5681 39.4867 75.9614 38.5507 75.4761 37.788C74.9907 37.0253 74.5401 36.2627 74.1241 35.5C73.7081 34.7373 73.2401 33.836 72.7201 32.796L72.5641 33.004C73.0494 34.668 73.3441 36.228 73.4481 37.684C73.5521 39.1053 73.6041 40.492 73.6041 41.844V54.532H65.2841V21.616H73.5521L82.9121 35.552C83.6401 36.6267 84.2467 37.5627 84.7321 38.36C85.2174 39.1227 85.6681 39.8853 86.0841 40.648C86.5001 41.4107 86.9681 42.312 87.4881 43.352L87.6441 43.144C87.2974 41.688 87.0374 40.284 86.8641 38.932C86.6907 37.5453 86.6041 36.176 86.6041 34.824V21.616ZM101.186 54.532V21.616H125.626V28.376H109.506V34.616H123.494V41.376H109.506V47.772H125.626V54.532H101.186ZM138.096 54.532H129.776V21.616H145.48C149.606 21.616 152.604 22.552 154.476 24.424C156.383 26.2613 157.336 28.9827 157.336 32.588C157.336 35.292 156.66 37.6147 155.308 39.556C153.956 41.4627 152.171 42.6587 149.952 43.144L149.9 43.3C150.767 43.8547 151.72 44.7733 152.76 46.056C153.8 47.3387 154.823 48.7427 155.828 50.268C156.868 51.7587 157.787 53.1627 158.584 54.48V54.532H148.912L143.296 46.212C142.811 45.484 142.412 44.964 142.1 44.652C141.823 44.34 141.476 44.1493 141.06 44.08C140.679 44.0107 140.055 43.976 139.188 43.976H138.096V54.532ZM144.128 28.376H138.096V37.216H144.128C145.862 37.216 147.058 36.8693 147.716 36.176C148.41 35.4827 148.756 34.356 148.756 32.796C148.756 31.236 148.41 30.1093 147.716 29.416C147.058 28.7227 145.862 28.376 144.128 28.376ZM184.352 44.808C184.352 43.664 184.404 42.624 184.508 41.688L184.404 41.532C183.433 41.6707 182.376 41.7747 181.232 41.844C180.088 41.8787 179.031 41.8787 178.06 41.844V35.084L191.632 35.032V52.712C190.037 53.44 188.217 54.012 186.172 54.428C184.161 54.8093 181.596 55 178.476 55C174.316 55 171.057 54.4453 168.7 53.336C166.343 52.192 164.679 50.372 163.708 47.876C162.737 45.3453 162.252 41.9827 162.252 37.788C162.252 34.3907 162.633 31.6 163.396 29.416C164.193 27.232 165.337 25.5507 166.828 24.372C168.353 23.1587 170.208 22.3267 172.392 21.876C174.576 21.3907 177.072 21.148 179.88 21.148C181.544 21.148 183.208 21.2173 184.872 21.356C186.571 21.4947 188.252 21.7547 189.916 22.136V29L189.76 29.104C188.304 28.7573 186.848 28.5147 185.392 28.376C183.971 28.2373 182.532 28.168 181.076 28.168C178.961 28.168 177.107 28.3933 175.512 28.844C173.952 29.26 172.739 30.144 171.872 31.496C171.005 32.848 170.572 34.9453 170.572 37.788C170.572 40.596 170.797 42.7453 171.248 44.236C171.733 45.692 172.617 46.6973 173.9 47.252C175.217 47.772 177.089 48.032 179.516 48.032C179.828 48.032 180.313 48.032 180.972 48.032C181.631 47.9973 182.289 47.9627 182.948 47.928C183.607 47.8933 184.075 47.8413 184.352 47.772V44.808ZM204.906 54.532V44.34L194.246 21.772V21.616H203.346C204.421 24.424 205.27 26.6773 205.894 28.376C206.553 30.04 207.055 31.3573 207.402 32.328C207.783 33.264 208.078 34.0267 208.286 34.616C208.494 35.2053 208.719 35.8293 208.962 36.488H209.17C209.413 35.8293 209.638 35.2053 209.846 34.616C210.054 34.0267 210.331 33.264 210.678 32.328C211.059 31.3573 211.562 30.04 212.186 28.376C212.845 26.6773 213.711 24.424 214.786 21.616H223.886V21.772L213.226 44.34V54.532H204.906Z" fill="white"/>
</svg>
